<?xml version="1.0" standalone="no"?>
<!DOCTYPE svg PUBLIC "-//W3C//DTD SVG 20010904//EN"
 "http://www.w3.org/TR/2001/REC-SVG-20010904/DTD/svg10.dtd">
<svg version="1.0" xmlns="http://www.w3.org/2000/svg"
 width="512.000000pt" height="512.000000pt" viewBox="0 0 512.000000 512.000000"
 preserveAspectRatio="xMidYMid meet">
<metadata>
Created by potrace 1.14, written by Peter Selinger 2001-2017
</metadata>
<g transform="translate(0.000000,512.000000) scale(0.100000,-0.100000)"
fill="#000000" stroke="none">
<path d="M320 5113 c-94 -18 -211 -104 -264 -195 -59 -102 -56 45 -53 -2383
l2 -2230 33 -68 c36 -74 110 -155 169 -185 108 -55 -43 -52 2354 -52 2137 0
2209 1 2268 19 123 38 216 123 263 239 l23 57 0 2250 0 2250 -34 69 c-43 89
-113 159 -199 199 l-67 32 -2235 1 c-1229 1 -2246 -1 -2260 -3z m3155 -2182
c-1 -670 -5 -992 -13 -1027 -62 -288 -240 -506 -498 -612 -142 -59 -270 -81
-444 -77 -534 12 -842 287 -874 783 l-4 52 37 1 c37 1 549 0 587 0 18 -1 21
-8 22 -48 5 -153 62 -250 165 -283 43 -13 151 -16 188 -5 48 16 101 57 130
103 65 103 62 51 65 1092 1 520 3 957 3 972 l1 27 319 -1 318 -1 -2 -976z"/>
</g>
</svg>
